<svg width="22" height="22" viewBox="0 0 22 22" fill="none" xmlns="http://www.w3.org/2000/svg">
<g clip-path="url(#clip0_20_1556)">
<path d="M17.1253 13.0417C16.8932 13.0417 16.6707 13.1339 16.5066 13.298C16.3425 13.4621 16.2503 13.6847 16.2503 13.9167V14.7917C16.2503 15.1785 16.0967 15.5495 15.8232 15.8229C15.5497 16.0964 15.1788 16.2501 14.792 16.2501H13.917C13.6849 16.2501 13.4624 16.3423 13.2983 16.5064C13.1342 16.6705 13.042 16.893 13.042 17.1251C13.042 17.3571 13.1342 17.5797 13.2983 17.7438C13.4624 17.9079 13.6849 18.0001 13.917 18.0001H14.792C15.6426 17.9992 16.4581 17.6608 17.0596 17.0594C17.6611 16.4579 17.9994 15.6424 18.0003 14.7917V13.9167C18.0003 13.6847 17.9081 13.4621 17.744 13.298C17.5799 13.1339 17.3574 13.0417 17.1253 13.0417Z" fill="white"/>
<path d="M8.08333 4H7.20833C6.35771 4.00093 5.5422 4.33924 4.94072 4.94072C4.33924 5.5422 4.00093 6.35771 4 7.20833L4 8.08333C4 8.3154 4.09219 8.53796 4.25628 8.70205C4.42038 8.86615 4.64294 8.95833 4.875 8.95833C5.10706 8.95833 5.32962 8.86615 5.49372 8.70205C5.65781 8.53796 5.75 8.3154 5.75 8.08333V7.20833C5.75 6.82156 5.90365 6.45063 6.17714 6.17714C6.45063 5.90365 6.82156 5.75 7.20833 5.75H8.08333C8.3154 5.75 8.53796 5.65781 8.70205 5.49372C8.86615 5.32962 8.95833 5.10706 8.95833 4.875C8.95833 4.64294 8.86615 4.42038 8.70205 4.25628C8.53796 4.09219 8.3154 4 8.08333 4V4Z" fill="white"/>
<path d="M8.08333 16.2501H7.20833C6.82156 16.2501 6.45063 16.0964 6.17714 15.8229C5.90365 15.5495 5.75 15.1785 5.75 14.7917V13.9167C5.75 13.6847 5.65781 13.4621 5.49372 13.298C5.32962 13.1339 5.10706 13.0417 4.875 13.0417C4.64294 13.0417 4.42038 13.1339 4.25628 13.298C4.09219 13.4621 4 13.6847 4 13.9167V14.7917C4.00093 15.6424 4.33924 16.4579 4.94072 17.0594C5.5422 17.6608 6.35771 17.9992 7.20833 18.0001H8.08333C8.3154 18.0001 8.53796 17.9079 8.70205 17.7438C8.86615 17.5797 8.95833 17.3571 8.95833 17.1251C8.95833 16.893 8.86615 16.6705 8.70205 16.5064C8.53796 16.3423 8.3154 16.2501 8.08333 16.2501Z" fill="white"/>
<path d="M14.792 4H13.917C13.6849 4 13.4624 4.09219 13.2983 4.25628C13.1342 4.42038 13.042 4.64294 13.042 4.875C13.042 5.10706 13.1342 5.32962 13.2983 5.49372C13.4624 5.65781 13.6849 5.75 13.917 5.75H14.792C15.1788 5.75 15.5497 5.90365 15.8232 6.17714C16.0967 6.45063 16.2503 6.82156 16.2503 7.20833V8.08333C16.2503 8.3154 16.3425 8.53796 16.5066 8.70205C16.6707 8.86615 16.8932 8.95833 17.1253 8.95833C17.3574 8.95833 17.5799 8.86615 17.744 8.70205C17.9081 8.53796 18.0003 8.3154 18.0003 8.08333V7.20833C17.9994 6.35771 17.6611 5.5422 17.0596 4.94072C16.4581 4.33924 15.6426 4.00093 14.792 4V4Z" fill="white"/>
</g>
<defs>
<clipPath id="clip0_20_1556">
<rect width="14" height="14" fill="white" transform="translate(4 4)"/>
</clipPath>
</defs>
</svg>
